<svg width="42" height="42" viewBox="0 0 61 61" fill="none" xmlns="http://www.w3.org/2000/svg">
<path d="M30.6006 0.205703C38.8006 0.205703 46.9006 0.305705 55.1006 0.105705C58.8006 0.00570501 60.6006 1.1057 60.6006 5.1057C60.5006 21.8057 60.5006 38.4057 60.6006 55.1057C60.6006 58.9057 59.1006 60.7057 55.2006 60.3057C50.9006 59.9057 45.3007 62.1057 42.8007 59.4057C40.7007 57.1057 42.1007 51.5057 42.0007 47.4057C42.0007 45.7057 42.2007 44.0057 42.0007 42.4057C41.5007 38.4057 42.3006 36.5057 47.1006 36.8057C52.5006 37.1057 49.6007 32.0057 50.5007 29.5057C51.4007 26.9057 48.3007 28.0057 47.0007 27.9057C44.5007 27.7057 41.7007 28.8057 41.9007 24.2057C42.1007 20.1057 42.7007 16.9057 47.4007 17.4057C52.0007 17.9057 50.9006 15.0057 51.1006 12.5057C51.4006 9.40571 49.9007 9.10571 47.3007 9.10571C36.2007 8.90571 32.6006 12.2057 32.6006 23.4057C32.6006 26.8057 31.7007 28.4057 28.2007 27.8057C24.4007 27.1057 24.7007 29.7057 24.9007 32.1057C25.0007 34.3057 23.8007 37.7057 28.2007 36.9057C32.3007 36.2057 32.8006 38.3057 32.6006 41.7057C32.4006 46.9057 32.5006 52.0057 32.6006 57.2057C32.7006 59.6057 31.9007 60.4057 29.5007 60.3057C21.5007 60.1057 13.5007 60.1057 5.50067 60.3057C1.90067 60.4057 0.200684 58.8057 0.200684 55.3057C0.200684 38.5057 0.200684 21.7057 0.200684 4.8057C0.200684 1.1057 2.10065 -0.0942973 5.60065 0.00570272C14.0006 0.305703 22.3006 0.205703 30.6006 0.205703Z" fill="#0A0B0B"/>
</svg>
