<svg width="40" height="40" viewBox="0 0 62 61" fill="none" xmlns="http://www.w3.org/2000/svg">
<path d="M30.8005 0.305648C36.7006 0.605648 42.8004 -0.59435 48.7005 1.20565C55.4005 3.20565 59.6005 8.20565 60.3005 15.2056C61.2006 24.5056 61.3005 33.8057 60.5005 43.1057C59.6005 53.5057 55.3005 58.9056 45.0005 59.9056C34.8005 60.9056 24.4005 61.3057 14.1005 59.5057C6.40048 58.1057 1.90048 53.0056 1.10048 45.3056C0.100476 35.5056 0.2005 25.7056 1.0005 15.9056C1.8005 6.70565 8.10055 0.70565 17.3005 0.40565C21.8005 0.20565 26.3005 0.305648 30.8005 0.305648ZM30.2005 54.5057C34.7005 54.5057 39.2005 54.7056 43.7005 54.4056C51.0005 54.0056 54.9005 50.1057 55.1005 42.7057C55.3005 34.2057 55.3005 25.7056 55.1005 17.3056C54.9005 10.9056 51.7006 7.00565 45.3005 6.20565C35.6005 4.90565 25.7005 4.90565 16.0005 6.20565C9.9005 7.00565 6.50052 10.7056 6.40053 16.9056C6.10052 25.7056 6.10052 34.5056 6.40053 43.3056C6.60052 50.2057 10.8005 54.1056 17.9005 54.4056C21.9005 54.6056 26.0005 54.5057 30.2005 54.5057Z" fill="#1A1B1B"/>
<path d="M30.2006 54.5057C26.0006 54.5057 21.9006 54.7057 17.7006 54.5057C10.6006 54.2057 6.40059 50.3057 6.20059 43.4057C5.90059 34.6057 5.90059 25.8057 6.20059 17.0057C6.40059 10.8057 9.70068 7.10569 15.8007 6.30569C25.5007 5.00569 35.4006 5.00569 45.1006 6.30569C51.5006 7.10569 54.8007 11.0057 54.9007 17.4057C55.1007 25.9057 55.1007 34.4057 54.9007 42.8057C54.7007 50.2057 50.9006 54.1057 43.5006 54.5057C39.2006 54.6057 34.7006 54.4057 30.2006 54.5057ZM30.6006 45.5057C39.2006 45.5057 46.2006 38.6057 46.1006 30.1057C46.0006 21.6057 39.0007 14.7057 30.4007 14.8057C22.1007 14.9057 15.3006 21.7057 15.1006 30.1057C15.0006 38.5057 21.9006 45.5057 30.6006 45.5057ZM50.2006 13.7057C49.9006 11.8057 48.7006 10.5057 46.7006 10.6057C44.5006 10.7057 43.0007 12.2057 43.3007 14.6057C43.5007 16.7057 45.0006 17.7057 47.1006 17.6057C49.2006 17.4057 50.2006 16.1057 50.2006 13.7057Z" fill="#F1F0F0"/>
<path d="M30.6007 45.5057C22.0007 45.5057 15.0007 38.5057 15.1007 30.0057C15.2007 21.6057 22.1007 14.8057 30.4007 14.7057C39.0007 14.6057 46.0007 21.5057 46.1007 30.0057C46.2007 38.6057 39.2007 45.5057 30.6007 45.5057ZM30.7006 20.3057C25.0006 20.3057 20.7007 24.7057 20.8007 30.4057C20.9007 35.8057 25.3007 40.2057 30.6007 40.2057C35.8007 40.3057 40.4007 35.8057 40.6007 30.5057C40.7007 24.9057 36.3006 20.4057 30.7006 20.3057Z" fill="#1A1B1B"/>
<path d="M50.2006 13.7057C50.2006 16.1057 49.3006 17.4057 47.0006 17.6057C44.9006 17.7057 43.4006 16.7057 43.2006 14.6057C42.9006 12.2057 44.5006 10.7057 46.6006 10.6057C48.6006 10.5057 49.9006 11.8057 50.2006 13.7057Z" fill="#1A1B1B"/>
<path d="M30.7007 20.3057C36.3007 20.3057 40.7007 24.9057 40.5007 30.5057C40.3007 35.8057 35.7007 40.3057 30.5007 40.2057C25.2007 40.1057 20.8007 35.7057 20.7007 30.4057C20.7007 24.7057 25.0007 20.3057 30.7007 20.3057Z" fill="#FEFEFD"/>
</svg>
