<svg width="40" height="40" viewBox="0 0 57 52" fill="none" xmlns="http://www.w3.org/2000/svg">
<path d="M19.3008 33.9057C19.3008 29.2057 19.4008 24.6057 19.3008 19.9057C19.2008 17.5057 20.2007 16.1058 22.4007 16.8058C25.5007 17.8058 30.2008 13.5058 31.8008 19.7058C32.1008 20.7058 33.1008 19.6058 33.8008 19.2058C45.5008 12.7058 55.6007 18.3057 56.1007 31.6057C56.3007 36.7057 56.0007 41.9057 56.2007 47.1057C56.3007 50.1057 55.5008 51.1057 52.3008 51.1057C43.8008 51.1057 43.9008 51.2058 43.8008 42.8058C43.8008 38.8058 44.1007 34.8057 43.4007 30.9057C42.7007 27.4057 40.9007 25.4057 37.4007 25.6057C34.0007 25.8057 31.9008 28.1058 31.8008 31.5058C31.6008 36.6058 31.5007 41.8057 31.7007 46.9057C31.8007 50.1057 31.0007 51.2057 27.6007 51.1057C19.5007 50.9057 19.5007 51.1057 19.5007 42.9057C19.4007 39.9057 19.3008 36.9057 19.3008 33.9057Z" fill="#1A1B1B"/>
<path d="M2.10041 33.4057C2.10041 28.9057 2.30043 24.4057 2.00043 19.9057C1.90043 17.2057 2.90046 16.6057 5.40046 16.6057C13.0005 16.4057 13.0004 16.3057 13.0004 23.8057C13.0004 31.4057 12.8004 39.1057 13.1004 46.7057C13.2004 49.9057 12.4004 51.1057 9.00043 51.0057C2.00043 50.9057 2.00043 51.1057 2.00043 44.3057C2.10043 40.7057 2.10041 37.1057 2.10041 33.4057Z" fill="#1A1B1B"/>
<path d="M7.20056 12.4057C3.30056 12.3057 0.900635 10.6057 0.900635 6.50566C0.900635 2.10566 4.00061 0.805664 7.50061 0.805664C11.0006 0.805664 13.7006 2.80566 13.7006 6.50566C13.7006 10.4057 11.3006 12.5057 7.20056 12.4057Z" fill="#1A1B1B"/>
</svg>
