<svg width="40" height="40" viewBox="0 0 61 62" fill="none" xmlns="http://www.w3.org/2000/svg">
<path d="M2.40053 58.7057C7.00053 52.1057 4.00046 46.1057 1.70046 39.3057C-3.79954 23.2057 6.80056 5.5057 23.3006 1.6057C39.5006 -2.2943 56.5005 8.50571 59.9005 24.9057C63.4005 41.5057 51.8006 57.9057 34.8006 60.6057C29.3006 61.5057 23.9006 61.2057 19.3006 58.7057C14.8006 56.3057 11.0005 56.6057 6.70046 58.3057C5.60046 58.7057 4.40053 59.8057 2.40053 58.7057ZM13.1005 24.1057C13.1005 24.0057 13.1005 25.4057 13.6005 26.6057C18.4005 37.3057 26.2005 44.6057 37.9005 47.4057C40.8005 48.1057 43.5005 47.6057 45.9005 45.7057C49.4005 43.0057 49.0005 39.3057 45.1005 37.3057C41.8005 35.6057 39.5006 34.8057 36.3006 38.4057C33.6006 41.4057 30.5006 37.7057 28.3006 35.9057C25.6006 33.6057 20.6005 30.8057 22.9005 27.2057C25.6005 23.0057 23.4006 20.5057 22.3006 17.3057C21.0006 13.5057 18.5005 14.0057 16.1005 15.8057C13.9005 17.4057 12.9005 19.8057 13.1005 24.1057Z" fill="#0A0B0B"/>
<path d="M13.1008 24.1058C12.8008 19.9058 13.8008 17.4058 16.1008 15.8058C18.5008 14.1058 21.0008 13.5058 22.3008 17.3058C23.4008 20.5058 25.6008 23.0058 22.9008 27.2058C20.6008 30.8058 25.6008 33.7058 28.3008 35.9058C30.5008 37.7058 33.6008 41.4058 36.3008 38.4058C39.5008 34.8058 41.8008 35.6058 45.1007 37.3058C49.0008 39.4058 49.4008 43.0058 45.9008 45.7058C43.5008 47.5058 40.8008 48.0058 37.9008 47.4058C26.2008 44.7058 18.4008 37.4058 13.6008 26.6058C13.1008 25.4058 13.1008 24.0058 13.1008 24.1058Z" fill="#F1F0F0"/>
</svg>
